PathFileType	4	(X/Y/Z)	D:\TRACE\v60_Jaco2_6-2-23\JustBodyDRS_Motion1_2-platform.trc
DataRate	CameraRate	NumFrames	NumMarkers	Units	OrigDataRate	OrigDataStartFrame	OrigNumFrames
100.00	100.00	      36	5	mm	100.00	1739	      6954
Frame#	Time	Left_Front			Right_Front			Left_Aft			Right_Aft			Post			
		X1	Y1	Z1	X2	Y2	Z2	X3	Y3	Z3	X4	Y4	Z4	X5	Y5	Z5	

1739	17.380	-843.23364	26.51873	-634.41180	726.84857	27.05556	-639.61487	-751.08221	-4.08070	500.40274	690.64484	-5.63501	510.14084	-56.36505	1333.11597	-922.72681	
1740	17.390	-843.64587	26.28579	-634.21814	726.38745	27.05092	-639.47150	-751.74719	-3.97405	500.43567	690.28967	-5.33798	510.08780	-56.81467	1332.61511	-922.90259	
1741	17.400	-843.89478	26.16915	-634.08777	725.88739	26.82851	-639.51385	-752.34973	-3.66700	500.42200	690.11285	-5.13252	509.98557	-57.25167	1332.10791	-923.61310	
1742	17.410	-844.75067	25.20601	-634.24304	725.19977	26.06340	-639.89160	-752.98468	-3.39178	500.32407	689.65729	-5.01845	509.96790	-58.15526	1331.75366	-924.38177	
1743	17.420	-845.29926	24.64475	-634.41870	724.66492	25.67382	-639.96863	-753.47693	-3.16978	500.26224	688.83984	-4.69334	509.93219	-58.25169	1331.35583	-925.66699	
1744	17.430	-845.84802	24.47641	-634.71082	724.11523	25.27531	-639.92181	-753.97461	-2.86240	500.22620	688.36755	-4.54949	509.86642	-59.16453	1330.98303	-926.46790	
1745	17.440	-846.52112	24.41680	-634.78540	723.79657	25.09140	-639.95099	-754.57739	-2.68299	500.23914	687.65576	-4.42300	509.93213	-59.78919	1330.54102	-927.68384	
1746	17.450	-847.20483	24.20555	-634.66235	723.38574	24.99607	-640.00604	-755.02612	-2.50074	500.22757	687.16736	-3.98501	509.84482	-60.12762	1329.92664	-929.04565	
1747	17.460	-847.49213	23.70522	-634.81287	722.71997	24.67249	-640.15570	-755.42584	-2.25982	500.13513	686.96106	-3.70499	509.71188	-60.79667	1329.54810	-929.88153	
1748	17.470	-847.67334	23.28026	-635.06384	722.24811	24.13997	-640.37030	-755.85687	-1.94017	500.03018	686.51544	-3.57143	509.59421	-61.15856	1329.19080	-930.36749	
1749	17.480	-848.12994	22.79051	-635.10193	721.75220	23.63713	-640.35150	-756.17041	-1.68860	499.92221	685.64819	-3.79529	509.93991	-61.46159	1328.56213	-931.38153	
1750	17.490	-848.47040	22.30452	-635.25110	721.32977	23.46698	-640.33276	-756.60132	-1.46968	499.78006	685.28912	-3.20720	509.66766	-61.76916	1327.91565	-931.88922	
1751	17.500	-848.76855	22.18130	-635.34717	721.06482	23.21782	-640.40985	-756.92737	-1.19377	499.78232	685.55450	-2.93238	509.99939	-62.01547	1327.41455	-932.21075	
1752	17.510	-848.99915	22.17087	-635.13507	720.71814	22.74724	-640.64502	-757.21344	-0.92299	499.84824	685.13550	-2.62198	509.54907	-62.21374	1327.04175	-932.57379	
1753	17.520	-849.37482	21.89229	-635.29517	720.47681	22.42984	-640.71136	-757.43097	-0.67962	499.87317	684.96997	-2.40495	509.39456	-62.65413	1326.42395	-932.89630	
1754	17.530	-849.74670	21.22280	-635.48047	720.13812	22.05361	-640.90619	-757.76379	-0.38277	499.71835	684.57233	-1.96350	509.21417	-63.10906	1326.01123	-933.74628	
1755	17.540	-849.97980	20.68017	-635.55951	719.97083	21.67301	-641.00360	-758.09955	-0.07273	499.49036	684.41418	-1.80151	509.10388	-62.94254	1325.70850	-934.55560	
1756	17.550	-850.28821	20.30601	-635.62323	719.94019	21.38638	-641.00989	-758.33008	0.17406	499.39627	684.15125	-1.69917	509.09183	-63.39109	1325.06116	-935.36432	
1757	17.560	-850.51434	20.02624	-635.50885	719.73553	21.04252	-641.10004	-758.56012	0.36305	499.36124	683.83936	-1.38757	509.01373	-63.73864	1324.16675	-936.60626	
1758	17.570	-850.65338	19.69797	-635.70325	719.53613	20.57514	-641.12476	-758.61151	0.66148	499.32059	683.65063	-1.02305	508.95786	-63.64161	1323.53735	-937.87128	
1759	17.580	-850.90790	19.44359	-635.99188	719.32294	20.04120	-641.38165	-758.77191	0.93588	499.16818	683.45313	-0.65217	508.87012	-63.69818	1323.19666	-938.78778	
1760	17.590	-851.12860	18.87605	-636.17010	719.25775	19.68073	-641.54150	-758.81073	1.18729	499.06464	683.40753	-0.35232	508.70380	-64.00198	1322.52380	-940.31171	
1761	17.600	-851.08099	18.36971	-636.26660	719.28070	19.27655	-641.53992	-758.86774	1.38763	498.98221	683.37256	-0.14527	508.53094	-63.97850	1321.87463	-940.82916	
1762	17.610	-850.98059	18.06123	-636.33337	719.28033	18.89658	-641.58832	-758.95947	1.64977	498.96021	683.34839	0.06048	508.45270	-63.81799	1321.32117	-941.90698	
1763	17.620	-850.99512	17.71358	-636.49255	719.20575	18.51814	-641.59161	-758.89679	1.87200	498.81186	683.23926	0.43269	508.20773	-64.29739	1320.95471	-942.66754	
1764	17.630	-850.99902	17.38941	-636.60999	719.12140	18.16183	-641.73163	-758.90381	2.32690	498.70422	682.91309	0.36110	508.39896	-64.35110	1320.16016	-943.28674	
1765	17.640	-850.99194	17.00188	-636.75366	718.99731	17.74095	-642.02130	-758.89209	2.66245	498.59723	683.19690	1.14407	507.96796	-64.09094	1319.51025	-944.24292	
1766	17.650	-851.01520	16.26640	-636.81372	719.01605	17.30233	-642.16516	-758.88171	2.93789	498.43655	683.04114	1.35617	507.83029	-64.28767	1318.97742	-944.83484	
1767	17.660	-851.03137	15.79397	-636.80682	719.02637	16.85036	-642.26428	-758.96246	3.19285	498.27576	682.86780	1.54100	507.73724	-64.37762	1318.26709	-945.36389	
1768	17.670	-851.03174	15.37518	-636.84436	719.05273	16.47752	-642.23798	-759.04718	3.51074	498.16354	682.54773	1.91574	507.66943	-64.56825	1317.81152	-946.59021	
1769	17.680	-850.96887	15.08115	-636.97168	719.09393	16.15730	-642.22388	-758.98358	3.68236	498.06723	682.83630	2.26752	507.37259	-64.62970	1317.26758	-947.44360	
1770	17.690	-850.84753	14.74817	-637.29779	719.09479	15.63688	-642.32050	-758.91302	4.00804	498.04214	682.97186	2.52078	507.07471	-64.20914	1316.61401	-948.68823	
1771	17.700	-850.71912	14.35464	-637.38672	719.46881	14.96721	-642.45551	-758.88269	4.29868	497.92914	683.09259	2.57374	506.88409	-64.53254	1315.73303	-949.92273	
1772	17.710	-850.58319	13.85273	-637.42206	719.26563	14.66743	-642.71295	-758.89136	4.63878	497.85056	683.19751	2.93540	506.43219	-64.11259	1315.25635	-951.02332	
1773	17.720	-850.40759	13.25205	-637.54590	719.48743	14.23911	-642.92560	-758.81207	5.03740	497.69708	683.45984	3.19182	506.34439	-64.04845	1314.49438	-952.08527	
1774	17.730	-850.22571	12.65432	-637.50623	719.89294	13.80683	-642.97333	-758.66956	5.48014	497.57278	683.60663	3.47564	505.97748	-63.23966	1313.82129	-953.03064	
